HIERARCHY
ROOT root
{
	OFFSET	0	13.1	24.9
	CHANNELS 6  Xposition Yposition Zposition Xrotation Yrotation Zrotation
	JOINT spine_1
	{
		OFFSET	0	9.99999	0
		CHANNELS 3  Xrotation Yrotation Zrotation
		JOINT spine_2
		{
			OFFSET	0	112	-10
			CHANNELS 3  Xrotation Yrotation Zrotation
			JOINT spine_3
			{
				OFFSET	0	206.5	19.3
				CHANNELS 3  Xrotation Yrotation Zrotation
				JOINT spine_4
				{
					OFFSET	0	110.4	14.6
					CHANNELS 3  Xrotation Yrotation Zrotation
					JOINT neck_1
					{
						OFFSET	0	71.8	-50.3
						CHANNELS 3  Xrotation Yrotation Zrotation
						JOINT neck_2
						{
							OFFSET	0	86.2	-25.8
							CHANNELS 3  Xrotation Yrotation Zrotation
							JOINT head_ee
							{
								OFFSET	0	179.8	-8.7
								CHANNELS 3  Xrotation Yrotation Zrotation
								End Site
								{
									OFFSET	1	0	0
								}
							}
						}
					}
					JOINT left_clavicle
					{
						OFFSET	-43.2	22.4	-70.8
						CHANNELS 3  Xrotation Yrotation Zrotation
						JOINT left_shoulder
						{
							OFFSET	-93.9	-5.79999	48.7
							CHANNELS 3  Xrotation Yrotation Zrotation
							JOINT left_elbow
							{
								OFFSET	-291.4	-30.8	15.2
								CHANNELS 3  Xrotation Yrotation Zrotation
								JOINT left_lowarm_twist
								{
									OFFSET	-110.7	-3.89999	13.6
									CHANNELS 3  Xrotation Yrotation Zrotation
									JOINT left_hand
									{
										OFFSET	-110.7	-3.89999	13.6
										CHANNELS 3  Xrotation Yrotation Zrotation
										JOINT left_ee
										{
											OFFSET	-80.8	-5.10001	12.1
											CHANNELS 3  Xrotation Yrotation Zrotation
											End Site
											{
												OFFSET	1	0	0
											}
										}
									}
								}
							}
						}
					}
					JOINT right_clavicle
					{
						OFFSET	43.2	22.4	-70.8
						CHANNELS 3  Xrotation Yrotation Zrotation
						JOINT right_shoulder
						{
							OFFSET	93.9	-5.79999	48.7
							CHANNELS 3  Xrotation Yrotation Zrotation
							JOINT right_elbow
							{
								OFFSET	291.4	-30.8	15.2
								CHANNELS 3  Xrotation Yrotation Zrotation
								JOINT right_lowarm_twist
								{
									OFFSET	110.7	-3.89999	13.6
									CHANNELS 3  Xrotation Yrotation Zrotation
									JOINT right_hand
									{
										OFFSET	110.7	-3.89999	13.6
										CHANNELS 3  Xrotation Yrotation Zrotation
										JOINT right_ee
										{
											OFFSET	80.8	-5.10001	12.1
											CHANNELS 3  Xrotation Yrotation Zrotation
											End Site
											{
												OFFSET	1	0	0
											}
										}
									}
								}
							}
						}
					}
				}
			}
		}
	}
	JOINT left_hip
	{
		OFFSET	-82.8	-127.5	0.300001
		CHANNELS 3  Xrotation Yrotation Zrotation
		JOINT left_knee
		{
			OFFSET	-28.2	-396.7	2.2
			CHANNELS 3  Xrotation Yrotation Zrotation
			JOINT left_ankle
			{
				OFFSET	-11.7	-411.3	35.4
				CHANNELS 3  Xrotation Yrotation Zrotation
				JOINT left_toes
				{
					OFFSET	0	-60	-88.6
					CHANNELS 3  Xrotation Yrotation Zrotation
					JOINT left_foot_ee
					{
						OFFSET	-22.5	-16.5	-42.2
						CHANNELS 3  Xrotation Yrotation Zrotation
						End Site
						{
							OFFSET	1	0	0
						}
					}
				}
			}
		}
	}
	JOINT right_hip
	{
		OFFSET	82.8	-127.5	0.300001
		CHANNELS 3  Xrotation Yrotation Zrotation
		JOINT right_knee
		{
			OFFSET	28.2	-396.7	2.2
			CHANNELS 3  Xrotation Yrotation Zrotation
			JOINT right_ankle
			{
				OFFSET	11.7	-411.3	35.4
				CHANNELS 3  Xrotation Yrotation Zrotation
				JOINT right_toes
				{
					OFFSET	0	-60	-88.6
					CHANNELS 3  Xrotation Yrotation Zrotation
					JOINT right_foot_ee
					{
						OFFSET	22.5	-16.5	-42.2
						CHANNELS 3  Xrotation Yrotation Zrotation
						End Site
						{
							OFFSET	1	0	0
						}
					}
				}
			}
		}
	}
}
MOTION
Frames: 16
Frame Time: 0.02
1205.75348214 713.733 -1749.97844633 -26.3328984879 22.4579702623 7.65514653197 9.00352 0.207067 1.05356 9.00412 0.139611 1.0646 9.00549 0.0813443 1.07062 9.00398 0.249399 1.04435 -12.4498 8.50307 -1.24842 -12.6159 16.9401 1.29526 -0.0 0.0 -0.0 -4.07172 17.0014 -4.34615 -17.6111 -42.2617 78.9291 0.1971 -5.57669 0.00959962 -32.5278 -2.19379 3.47401 1.04247 -20.833 -1.9485 -0.0 0.0 -0.0 13.5171 24.663 -27.0299 90.3746 -67.1676 8.56698 0.201732 5.70689 -0.010055 85.2798 4.46006 8.87895 -4.43613 -10.403 24.8958 0.0 0.0 0.0 50.1559 9.33183 -2.19092 -66.2529 -2.91164 9.17656 4.27459 -24.7808 -0.737552 23.8522 -0.0 -0.0 -0.0 0.0 -0.0 40.8793 0.370588 1.94642 -19.5704 -0.300502 -2.97363 29.6061 5.4427 3.92583 18.2752 -0.0 -0.0 0.0 0.0 0.0 
1186.84080603 712.548 -1763.63733868 -26.3922135217 22.3211285323 7.90567726283 9.22451 0.244384 0.773367 9.22482 0.194679 0.787349 9.22682 0.15453 0.796202 9.22604 0.278332 0.761808 -12.1619 7.30113 -0.684624 -12.2739 14.2904 1.43581 -0.0 0.0 -0.0 -4.10291 18.2168 -4.12053 -18.7199 -42.8136 80.1225 0.187111 -5.29571 0.00865331 -31.9348 -2.13708 3.42334 1.72629 -16.6137 4.48697 -0.0 0.0 -0.0 12.9844 23.5599 -25.9054 90.3206 -66.4725 5.65448 0.192556 5.4489 -0.0091631 85.3619 4.46991 8.88268 -5.24333 -14.6858 27.7716 0.0 0.0 0.0 51.5178 6.03678 -0.680929 -66.4073 -2.9301 9.19164 3.7943 -24.5325 -0.653919 24.243 -0.0 -0.0 -0.0 0.0 -0.0 38.5986 0.0597403 2.94458 -18.0771 -0.313569 -2.74488 32.659 11.1467 4.35435 18.9563 -0.0 -0.0 0.0 0.0 0.0 
1162.68979395 717.722 -1778.62355716 -25.3034870179 24.1165714404 8.20594851042 8.65581 0.33893 0.767982 8.65609 0.289376 0.787991 8.65948 0.241132 0.804066 8.65876 0.365089 0.755897 -12.8105 6.39244 0.0206025 -12.9025 12.1402 1.91537 -0.0 0.0 -0.0 -3.76801 18.6906 -3.50266 -22.1534 -48.2298 78.2131 0.200932 -5.6844 0.00997553 -30.9133 -2.04063 3.33467 2.31925 -17.3396 8.13379 -0.0 0.0 -0.0 13.1148 23.1047 -26.2529 90.8365 -65.589 4.13931 0.191416 5.41683 -0.00905506 85.337 4.46692 8.88155 -7.43109 -26.0946 33.4152 0.0 0.0 0.0 56.1954 3.46021 -1.32761 -67.6694 -3.08252 9.31312 -0.997553 -21.3716 0.168666 22.6968 -0.0 -0.0 -0.0 0.0 -0.0 36.0386 -5.42046 4.11394 -18.1014 -0.313404 -2.7486 33.9371 14.4907 4.57301 19.1726 -0.0 -0.0 0.0 0.0 0.0 
1129.95854243 723.301 -1803.10039575 -26.1078127897 27.9625845286 9.72945763548 8.17081 0.250424 0.778081 8.17112 0.200406 0.792438 8.17331 0.145227 0.804381 8.1725 0.270438 0.771353 -12.3924 7.10338 2.9324 -12.4467 11.6227 4.85911 -0.0 0.0 -0.0 -1.58831 18.0941 -0.297633 -33.4676 -47.1414 69.9494 0.314214 -8.84741 0.0243083 -27.2254 -1.706 3.00071 4.29037 -23.2716 18.424 -0.0 0.0 -0.0 12.8298 21.1204 -25.7649 90.9983 -65.142 0.898953 0.190744 5.39794 -0.00899189 85.3365 4.46685 8.88153 -8.50581 -30.2278 36.2843 0.0 0.0 0.0 56.2768 -1.54991 -1.1788 -55.7387 -1.75783 8.0395 -7.8554 -18.373 1.31068 21.0734 -0.0 -0.0 -0.0 0.0 -0.0 32.8088 -4.9445 4.47073 -16.5874 -0.32066 -2.51642 35.5148 14.7887 4.7404 22.1528 -0.0 -0.0 0.0 0.0 0.0 
1121.23013949 721.194 -1814.34216477 -26.0197323929 28.3691585834 9.88737892753 8.12413 0.251009 0.71749 8.12439 0.204845 0.732007 8.12651 0.153219 0.744526 8.12584 0.268877 0.710987 -12.7974 9.42996 2.82287 -12.9403 16.158 5.50248 -0.0 0.0 -0.0 -0.789999 18.914 1.02722 -39.5342 -47.6086 64.8104 0.443464 -12.3901 0.0481371 -28.4619 -1.81578 3.11506 4.82474 -19.8098 24.148 -0.0 0.0 -0.0 12.8118 20.893 -25.7412 90.8615 -65.693 -3.11536 0.203038 5.74359 -0.0101853 85.486 4.4848 8.88829 -8.91459 -30.5828 38.7688 0.0 0.0 0.0 57.0011 -6.6522 -1.19336 -47.8263 -1.03817 7.05695 -12.5448 -14.5052 2.04153 17.7874 -0.0 -0.0 -0.0 0.0 -0.0 31.7019 -9.12132 4.96777 -15.375 -0.322045 -2.33041 37.6209 18.7441 5.08172 24.3194 -0.0 -0.0 0.0 0.0 0.0 
1102.80237895 713.875 -1826.76480082 -26.4887632153 28.6781922392 10.7004055148 8.19265 0.258461 0.693766 8.19289 0.213792 0.708806 8.19507 0.164628 0.72181 8.19445 0.276556 0.686754 -12.6479 7.38265 2.09542 -12.734 12.7062 4.17183 -0.0 0.0 -0.0 -0.490268 18.179 1.38338 -41.0074 -47.6036 65.0808 0.405463 -11.3572 0.0403178 -28.2211 -1.79421 3.09298 5.7605 -20.7301 30.4299 -0.0 0.0 -0.0 12.4212 20.1904 -24.8898 90.3775 -66.6336 -4.77123 0.200268 5.66573 -0.00990988 85.3002 4.4625 8.87988 -9.26882 -30.6595 41.3287 0.0 0.0 0.0 58.2405 -9.04294 -0.381097 -41.7854 -0.584244 6.24639 -20.9547 -8.79404 3.30375 16.7549 -0.0 -0.0 -0.0 0.0 -0.0 29.9349 -8.68382 4.90689 -15.2 -0.32192 -2.30357 37.4173 17.6051 5.01917 25.7001 -0.0 -0.0 0.0 0.0 0.0 
1084.61938303 712.443 -1835.9274293 -27.0895943254 30.6181330933 12.0742732537 8.13486 0.264726 0.73177 8.13513 0.217626 0.747131 8.13745 0.165058 0.760474 8.13676 0.283087 0.724866 -11.8552 7.82423 2.16596 -11.9371 13.4357 4.27791 -0.0 0.0 -0.0 -0.364474 17.6615 1.51061 -42.9164 -48.3112 64.2819 0.437717 -12.2344 0.0469116 -29.0009 -1.86441 3.16416 6.43028 -20.6153 35.6542 -0.0 0.0 -0.0 11.4508 18.7762 -22.7603 90.5953 -68.1044 -6.42009 0.19511 5.52072 -0.00940711 85.435 4.47868 8.88599 -10.121 -31.4219 47.114 0.0 0.0 0.0 58.2536 -10.0624 -0.849397 -36.4826 -0.258291 5.49958 -22.4577 -4.71221 3.47215 9.9199 -0.0 -0.0 -0.0 0.0 -0.0 28.4839 -8.781 4.76763 -14.9226 -0.321554 -2.26101 38.2213 18.396 5.12493 28.3682 -0.0 -0.0 0.0 0.0 0.0 
1056.40875908 707.905 -1845.55463993 -27.9896774955 32.1151809612 13.500213066 8.11564 0.255041 0.756649 8.11594 0.206378 0.771343 8.11817 0.151887 0.783895 8.11742 0.273779 0.750073 -12.1804 7.22165 2.08508 -12.2538 12.3702 4.06319 -0.0 0.0 -0.0 -0.80426 18.0422 0.888357 -41.1839 -50.2032 66.586 0.289068 -8.1493 0.0205922 -29.7254 -1.93049 3.22944 6.04857 -17.2005 34.9669 -0.0 0.0 -0.0 11.2558 16.273 -22.4533 90.8271 -68.5204 -8.38018 0.200755 5.67943 -0.00995806 85.3818 4.47229 8.88358 -10.6486 -31.732 51.4194 0.0 0.0 0.0 58.1474 -12.0389 -1.23463 -28.55 0.0968667 4.33518 -20.2909 3.65068 3.06258 1.34521 -0.0 -0.0 -0.0 0.0 -0.0 27.3971 0.597437 3.90964 -17.6974 -0.31594 -2.68667 39.235 12.9937 5.0369 28.9006 -0.0 -0.0 0.0 0.0 0.0 
1054.83754952 707.905 -1844.20970143 -28.0617991379 32.3301532364 13.6354718872 8.11564 0.255041 0.756649 8.11594 0.206378 0.771343 8.11817 0.151887 0.783895 8.11742 0.273779 0.750073 -12.1804 7.22165 2.08508 -12.2538 12.3702 4.06319 -0.0 0.0 -0.0 -0.80426 18.0422 0.888357 -41.1839 -50.2032 66.586 0.289068 -8.1493 0.0205922 -29.7254 -1.93049 3.22944 6.04857 -17.2005 34.9669 -0.0 0.0 -0.0 11.2558 16.273 -22.4533 90.8271 -68.5204 -8.38018 0.200755 5.67943 -0.00995806 85.3818 4.47229 8.88358 -10.6486 -31.732 51.4194 0.0 0.0 0.0 58.1474 -12.0389 -1.23463 -28.55 0.0968667 4.33518 -20.2909 3.65068 3.06258 1.34521 -0.0 -0.0 -0.0 0.0 -0.0 27.3971 0.597437 3.90964 -17.6974 -0.31594 -2.68667 39.235 12.9937 5.0369 28.9006 -0.0 -0.0 0.0 0.0 0.0 
1050.54293209 707.905 -1840.47380735 -28.2643103673 32.9210469023 14.0110799657 8.11564 0.255041 0.756649 8.11594 0.206378 0.771343 8.11817 0.151887 0.783895 8.11742 0.273779 0.750073 -12.1804 7.22165 2.08508 -12.2538 12.3702 4.06319 -0.0 0.0 -0.0 -0.80426 18.0422 0.888357 -41.1839 -50.2032 66.586 0.289068 -8.1493 0.0205922 -29.7254 -1.93049 3.22944 6.04857 -17.2005 34.9669 -0.0 0.0 -0.0 11.2558 16.273 -22.4533 90.8271 -68.5204 -8.38018 0.200755 5.67943 -0.00995806 85.3818 4.47229 8.88358 -10.6486 -31.732 51.4194 0.0 0.0 0.0 58.1474 -12.0389 -1.23463 -28.55 0.0968667 4.33518 -20.2909 3.65068 3.06258 1.34521 -0.0 -0.0 -0.0 0.0 -0.0 27.3971 0.597437 3.90964 -17.6974 -0.31594 -2.68667 39.235 12.9937 5.0369 28.9006 -0.0 -0.0 0.0 0.0 0.0 
1044.66131165 707.905 -1835.21136829 -28.5550742094 33.7384349396 14.54024825 8.11564 0.255041 0.756649 8.11594 0.206378 0.771343 8.11817 0.151887 0.783895 8.11742 0.273779 0.750073 -12.1804 7.22165 2.08508 -12.2538 12.3702 4.06319 -0.0 0.0 -0.0 -0.80426 18.0422 0.888357 -41.1839 -50.2032 66.586 0.289068 -8.1493 0.0205922 -29.7254 -1.93049 3.22944 6.04857 -17.2005 34.9669 -0.0 0.0 -0.0 11.2558 16.273 -22.4533 90.8271 -68.5204 -8.38018 0.200755 5.67943 -0.00995806 85.3818 4.47229 8.88358 -10.6486 -31.732 51.4194 0.0 0.0 0.0 58.1474 -12.0389 -1.23463 -28.55 0.0968667 4.33518 -20.2909 3.65068 3.06258 1.34521 -0.0 -0.0 -0.0 0.0 -0.0 27.3971 0.597437 3.90964 -17.6974 -0.31594 -2.68667 39.235 12.9937 5.0369 28.9006 -0.0 -0.0 0.0 0.0 0.0 
1025.63706811 700.354 -1845.16514731 -30.8710292794 34.5877800007 16.5210230048 8.78346 0.257589 0.77581 8.78377 0.207701 0.790628 8.786 0.16121 0.801401 8.78522 0.285749 0.765886 -12.11 7.5545 1.47722 -12.2029 13.386 3.57146 -0.0 0.0 -0.0 -0.8895 16.8632 0.596661 -44.1168 -50.815 65.4134 0.404824 -11.3398 0.0401921 -30.3419 -1.98738 3.28434 7.33536 -23.0797 41.0563 -0.0 0.0 -0.0 11.6885 14.6256 -23.5002 91.385 -67.4035 -8.47125 0.193357 5.47144 -0.00923938 85.3953 4.47392 8.8842 -10.7823 -31.8841 52.4423 0.0 0.0 0.0 58.286 -12.8471 -1.50779 -22.9355 0.249238 3.48736 -20.5645 7.7062 3.09254 -2.90746 0.0 0.0 -0.0 0.0 -0.0 26.7515 2.69258 3.58734 -17.3257 -0.317888 -2.62967 39.6248 10.1852 4.99852 31.5002 -0.0 -0.0 0.0 0.0 0.0 
1021.28238243 700.354 -1841.03882108 -31.1144647229 35.1691689906 16.946723431 8.78346 0.257589 0.77581 8.78377 0.207701 0.790628 8.786 0.16121 0.801401 8.78522 0.285749 0.765886 -12.11 7.5545 1.47722 -12.2029 13.386 3.57146 -0.0 0.0 -0.0 -0.8895 16.8632 0.596661 -44.1168 -50.815 65.4134 0.404824 -11.3398 0.0401921 -30.3419 -1.98738 3.28434 7.33536 -23.0797 41.0563 -0.0 0.0 -0.0 11.6885 14.6256 -23.5002 91.385 -67.4035 -8.47125 0.193357 5.47144 -0.00923938 85.3953 4.47392 8.8842 -10.7823 -31.8841 52.4423 0.0 0.0 0.0 58.286 -12.8471 -1.50779 -22.9355 0.249238 3.48736 -20.5645 7.7062 3.09254 -2.90746 0.0 0.0 -0.0 0.0 -0.0 26.7515 2.69258 3.58734 -17.3257 -0.317888 -2.62967 39.6248 10.1852 4.99852 31.5002 -0.0 -0.0 0.0 0.0 0.0 
1014.90947087 700.354 -1834.81974117 -31.4889058214 36.0293292866 17.5899462946 8.78346 0.257589 0.77581 8.78377 0.207701 0.790628 8.786 0.16121 0.801401 8.78522 0.285749 0.765886 -12.11 7.5545 1.47722 -12.2029 13.386 3.57146 -0.0 0.0 -0.0 -0.8895 16.8632 0.596661 -44.1168 -50.815 65.4134 0.404824 -11.3398 0.0401921 -30.3419 -1.98738 3.28434 7.33536 -23.0797 41.0563 -0.0 0.0 -0.0 11.6885 14.6256 -23.5002 91.385 -67.4035 -8.47125 0.193357 5.47144 -0.00923938 85.3953 4.47392 8.8842 -10.7823 -31.8841 52.4423 0.0 0.0 0.0 58.286 -12.8471 -1.50779 -22.9355 0.249238 3.48736 -20.5645 7.7062 3.09254 -2.90746 0.0 0.0 -0.0 0.0 -0.0 26.7515 2.69258 3.58734 -17.3257 -0.317888 -2.62967 39.6248 10.1852 4.99852 31.5002 -0.0 -0.0 0.0 0.0 0.0 
999.65868178 694.447 -1844.20779653 -34.235570849 36.0970097858 20.2396240084 9.23636 0.270523 0.901008 9.23678 0.212644 0.916394 9.23926 0.166138 0.925955 9.2382 0.310285 0.888101 -10.659 6.20594 1.02856 -10.7038 11.0294 2.61346 -0.0 0.0 -0.0 -0.729821 14.4792 0.52642 -41.6228 -51.3276 68.7279 0.233926 -6.61011 0.0135088 -31.1794 -2.0656 3.35793 7.56892 -22.3712 43.6372 -0.0 0.0 -0.0 12.2828 15.6202 -24.8234 91.1418 -65.2289 -10.8966 0.200973 5.68554 -0.00997966 85.5216 4.48909 8.8899 -11.243 -32.3101 56.4522 0.0 0.0 0.0 58.351 -14.646 -3.1428 -12.7897 0.311856 1.93392 -19.3675 16.362 2.93708 -9.56456 0.0 0.0 -0.0 0.0 -0.0 27.7948 1.53572 3.41413 -18.1655 -0.312961 -2.75843 39.8963 13.2794 5.10355 31.7203 -0.0 -0.0 0.0 0.0 0.0 
997.911674386 694.447 -1842.43628665 -34.3477376736 36.3216687087 20.4294995454 9.23636 0.270523 0.901008 9.23678 0.212644 0.916394 9.23926 0.166138 0.925955 9.2382 0.310285 0.888101 -10.659 6.20594 1.02856 -10.7038 11.0294 2.61346 -0.0 0.0 -0.0 -0.729821 14.4792 0.52642 -41.6228 -51.3276 68.7279 0.233926 -6.61011 0.0135088 -31.1794 -2.0656 3.35793 7.56892 -22.3712 43.6372 -0.0 0.0 -0.0 12.2828 15.6202 -24.8234 91.1418 -65.2289 -10.8966 0.200973 5.68554 -0.00997966 85.5216 4.48909 8.8899 -11.243 -32.3101 56.4522 0.0 0.0 0.0 58.351 -14.646 -3.1428 -12.7897 0.311856 1.93392 -19.3675 16.362 2.93708 -9.56456 0.0 0.0 -0.0 0.0 -0.0 27.7948 1.53572 3.41413 -18.1655 -0.312961 -2.75843 39.8963 13.2794 5.10355 31.7203 -0.0 -0.0 0.0 0.0 0.0 
